<?xml version="1.0" standalone="no"?>
<!DOCTYPE svg PUBLIC "-//W3C//DTD SVG 20010904//EN"
 "http://www.w3.org/TR/2001/REC-SVG-20010904/DTD/svg10.dtd">
<svg version="1.0" xmlns="http://www.w3.org/2000/svg"
 width="2160.000000pt" height="2160.000000pt" viewBox="0 0 2160.000000 2160.000000"
 preserveAspectRatio="xMidYMid meet">
<metadata>
Created by potrace 1.14, written by Peter Selinger 2001-2017
</metadata>
<g transform="translate(0.000000,2160.000000) scale(0.100000,-0.100000)"
fill="#000000" stroke="none">
<path d="M9070 21163 c0 -4 -46 -9 -101 -10 -64 -2 -107 -7 -117 -15 -10 -8
-13 -9 -9 -2 4 7 0 15 -9 18 -8 3 -12 2 -9 -4 4 -6 -10 -10 -32 -11 -135 -3
-179 -6 -190 -12 -8 -5 -13 -3 -13 5 0 8 -3 9 -8 3 -4 -5 -31 -10 -60 -10 -30
0 -56 -3 -58 -6 -2 -4 -15 -5 -29 -4 -14 2 -25 0 -25 -4 0 -4 -20 -6 -45 -5
-24 2 -47 -1 -50 -7 -4 -5 -14 -5 -27 2 -15 8 -19 8 -14 0 5 -7 -7 -11 -33
-12 -50 -2 -53 -2 -70 -13 -11 -7 -12 -6 -6 5 7 11 6 12 -6 3 -8 -7 -33 -11
-56 -10 -22 0 -39 -2 -36 -6 2 -5 1 -8 -4 -9 -4 0 -27 -2 -50 -3 -23 -2 -49
-8 -57 -15 -10 -9 -16 -9 -21 -1 -4 6 -14 8 -24 5 -23 -9 -51 -16 -86 -19 -16
-2 -37 -6 -45 -9 -8 -3 -33 -9 -55 -12 -22 -4 -47 -8 -55 -10 -8 -2 -28 -4
-43 -4 -16 -1 -26 -5 -23 -10 3 -4 -5 -7 -18 -6 -14 2 -35 -3 -49 -10 -14 -7
-30 -9 -38 -4 -7 4 -18 4 -25 -2 -6 -5 -24 -11 -40 -13 -16 -3 -47 -9 -68 -15
-22 -5 -44 -8 -48 -5 -4 3 -8 0 -8 -6 0 -7 -7 -10 -15 -6 -8 3 -15 1 -15 -3 0
-5 -8 -7 -19 -4 -10 3 -22 0 -25 -5 -3 -6 -15 -8 -26 -5 -11 3 -20 1 -20 -4 0
-5 -6 -10 -12 -11 -7 0 -26 -4 -43 -7 -16 -3 -39 -8 -50 -9 -11 -2 -27 -6 -36
-10 -9 -4 -27 -8 -40 -10 -13 -2 -32 -6 -41 -10 -38 -13 -54 -18 -78 -22 -13
-3 -31 -11 -39 -17 -12 -10 -13 -9 -7 1 7 12 4 12 -13 2 -23 -12 -25 -13 -103
-31 -27 -6 -48 -15 -48 -19 0 -5 -7 -7 -15 -4 -8 4 -23 0 -32 -7 -14 -12 -16
-12 -8 1 6 12 5 13 -6 3 -7 -7 -21 -13 -31 -13 -10 0 -18 -5 -18 -10 0 -6 -3
-9 -7 -8 -16 4 -93 -14 -98 -22 -3 -5 -12 -7 -20 -3 -8 3 -15 0 -15 -6 0 -7
-6 -11 -12 -9 -15 2 -88 -21 -104 -33 -6 -5 -14 -6 -17 -2 -4 3 -13 0 -22 -7
-8 -7 -15 -9 -15 -5 0 4 -7 2 -15 -5 -8 -6 -19 -9 -25 -5 -5 3 -10 1 -10 -6 0
-7 -3 -10 -6 -6 -3 3 -28 -3 -54 -13 -26 -10 -51 -16 -54 -13 -3 4 -6 1 -6 -5
0 -7 -3 -11 -7 -11 -5 1 -11 0 -15 -1 -5 -1 -11 -3 -15 -5 -5 -1 -21 -7 -36
-13 -16 -7 -32 -10 -37 -7 -5 3 -10 0 -12 -5 -2 -6 -13 -12 -26 -13 -12 0 -22
-5 -22 -9 0 -4 -6 -8 -12 -8 -7 -1 -31 -9 -53 -20 -22 -11 -46 -19 -52 -20 -7
0 -13 -4 -13 -8 0 -5 -6 -9 -12 -9 -7 0 -40 -12 -73 -27 -99 -46 -124 -57
-130 -56 -3 0 -27 -11 -54 -24 -27 -14 -51 -22 -55 -19 -3 4 -6 1 -6 -5 0 -7
-3 -11 -7 -10 -9 1 -41 -11 -111 -44 -26 -12 -49 -23 -52 -23 -3 -1 -18 -8
-35 -15 -16 -7 -34 -14 -38 -14 -4 -1 -12 -8 -17 -16 -5 -8 -10 -12 -10 -7 0
4 -13 1 -29 -7 -16 -9 -31 -12 -35 -9 -3 4 -6 2 -6 -3 0 -6 -16 -16 -35 -23
-19 -7 -35 -17 -35 -22 0 -5 -7 -9 -15 -9 -8 0 -31 -9 -50 -20 -20 -11 -41
-17 -47 -14 -6 4 -8 2 -4 -4 3 -6 -12 -17 -39 -28 -25 -9 -45 -21 -45 -26 0
-5 -4 -6 -10 -3 -5 3 -10 2 -10 -2 0 -8 -43 -28 -64 -30 -5 -1 -12 -7 -17 -15
-5 -7 -12 -13 -16 -13 -4 -1 -24 -9 -43 -20 -19 -11 -37 -19 -40 -20 -3 0 -24
-13 -47 -28 -24 -15 -47 -27 -53 -27 -5 0 -10 -5 -10 -12 0 -6 -3 -8 -6 -5 -4
4 -19 -2 -34 -13 -16 -11 -33 -20 -39 -20 -6 0 -11 -4 -11 -10 0 -5 -4 -10 -9
-10 -6 0 -36 -15 -68 -34 -32 -19 -62 -34 -67 -34 -5 0 -13 -7 -18 -16 -5 -9
-15 -16 -22 -16 -8 0 -19 -7 -26 -15 -7 -8 -16 -12 -21 -10 -4 3 -12 -2 -17
-10 -5 -9 -15 -17 -24 -19 -8 -1 -23 -9 -32 -19 -10 -9 -24 -17 -32 -17 -8 0
-14 -4 -14 -10 0 -5 -7 -10 -15 -10 -9 0 -18 -7 -21 -15 -4 -8 -10 -13 -14
-10 -4 3 -13 -2 -20 -10 -7 -8 -16 -12 -21 -9 -5 3 -9 1 -9 -3 0 -8 -48 -40
-62 -42 -5 -1 -17 -9 -27 -18 -31 -28 -50 -43 -55 -43 -9 0 -291 -192 -298
-204 -4 -6 -8 -6 -8 -1 0 6 -6 3 -13 -6 -7 -9 -23 -22 -36 -29 -26 -13 -40
-24 -71 -52 -10 -9 -21 -14 -24 -10 -3 3 -6 1 -6 -4 0 -5 -16 -18 -35 -28 -19
-11 -35 -23 -35 -28 0 -4 -5 -8 -10 -8 -6 0 -22 -10 -35 -22 -13 -13 -40 -36
-60 -53 -21 -16 -50 -42 -66 -57 -16 -15 -29 -25 -29 -22 0 3 -11 -5 -24 -18
-13 -13 -33 -30 -45 -38 -11 -9 -36 -30 -55 -48 -20 -18 -38 -32 -41 -32 -3 0
-16 -9 -28 -20 -33 -30 -79 -70 -133 -115 -26 -22 -59 -50 -72 -62 -14 -13
-29 -23 -34 -23 -5 0 -6 -4 -3 -10 3 -5 2 -10 -3 -10 -9 0 -88 -68 -144 -123
-15 -15 -28 -26 -28 -24 0 4 -383 -367 -404 -391 -6 -7 -46 -49 -88 -92 -42
-44 -75 -80 -74 -80 2 0 -17 -22 -43 -48 -25 -27 -71 -77 -101 -112 -30 -35
-67 -77 -83 -92 -15 -15 -27 -31 -27 -35 0 -5 -8 -15 -17 -24 -25 -21 -90
-102 -291 -358 -15 -19 -33 -40 -39 -47 -7 -7 -13 -15 -13 -18 0 -7 -27 -41
-60 -75 -13 -14 -23 -27 -21 -29 1 -2 -12 -20 -31 -41 -31 -34 -32 -38 -16
-53 9 -9 19 -14 22 -11 3 4 6 1 6 -5 0 -7 6 -12 13 -12 7 0 22 -7 32 -15 36
-29 157 -105 165 -105 5 0 13 -6 17 -12 12 -19 69 -48 78 -40 5 4 5 1 1 -5 -4
-8 -1 -13 8 -13 9 0 16 -3 16 -7 0 -5 18 -17 40 -27 22 -11 40 -23 40 -28 0
-5 5 -6 12 -2 7 5 9 2 5 -8 -4 -12 -1 -14 14 -11 10 3 19 1 19 -4 0 -5 34 -29
75 -53 41 -24 75 -48 75 -52 0 -5 5 -8 11 -8 6 0 31 -13 56 -30 24 -16 48 -30
53 -30 5 0 13 -8 19 -17 5 -10 12 -17 15 -15 4 1 32 -14 63 -34 31 -20 67 -41
80 -47 13 -5 23 -13 23 -17 0 -4 14 -13 30 -20 17 -7 30 -16 30 -20 0 -4 8
-10 18 -13 22 -7 71 -37 96 -59 11 -10 26 -18 33 -18 7 0 13 -5 13 -12 0 -6 3
-8 6 -5 4 4 15 -3 25 -15 11 -11 19 -17 19 -12 0 5 4 4 8 -1 4 -6 24 -19 46
-30 21 -11 40 -26 43 -32 3 -7 9 -11 13 -8 4 3 13 -2 20 -10 7 -8 19 -15 26
-15 8 0 14 -4 14 -9 0 -5 14 -14 30 -21 17 -7 30 -15 30 -19 0 -3 18 -15 40
-25 22 -10 37 -23 34 -28 -3 -5 -2 -8 3 -7 15 2 53 -13 53 -22 0 -5 7 -9 15
-9 8 0 15 -4 15 -10 0 -5 6 -10 13 -10 8 0 22 -9 32 -20 10 -11 20 -18 22 -16
4 3 110 -63 148 -91 6 -5 22 -14 37 -22 16 -8 28 -18 28 -21 0 -4 15 -14 33
-21 17 -7 41 -21 51 -31 10 -9 23 -15 28 -12 4 3 8 1 8 -4 0 -5 15 -17 34 -27
19 -11 33 -22 31 -25 -2 -4 1 -7 8 -7 7 0 47 -23 91 -51 43 -29 83 -49 90 -45
6 3 8 2 3 -2 -7 -9 134 -105 153 -105 6 0 10 -4 10 -9 0 -5 8 -12 19 -16 10
-3 29 -14 41 -25 12 -11 26 -17 30 -15 4 3 10 -2 14 -10 3 -8 12 -15 21 -15 8
0 15 -4 15 -9 0 -5 14 -14 30 -21 17 -7 30 -16 30 -20 0 -4 14 -13 30 -20 17
-7 43 -22 58 -34 32 -25 81 -54 105 -62 9 -4 17 -10 17 -14 0 -4 16 -15 35
-24 19 -9 35 -21 35 -27 0 -6 4 -8 8 -5 5 3 21 -6 36 -19 16 -14 32 -22 36
-20 5 3 10 1 12 -3 1 -5 32 -27 68 -50 36 -23 71 -46 78 -52 6 -6 12 -8 12 -5
0 4 7 0 15 -7 34 -31 43 -36 49 -31 3 4 6 1 6 -6 0 -7 5 -9 10 -6 6 3 10 2 10
-2 0 -9 55 -45 66 -43 4 1 10 -2 13 -8 3 -5 33 -26 66 -47 33 -21 63 -43 67
-49 4 -6 8 -8 8 -3 0 7 37 -14 65 -36 19 -15 165 -107 170 -107 6 0 43 -30
146 -121 34 -30 76 -68 94 -86 18 -17 36 -29 39 -26 3 4 6 -1 6 -10 0 -9 4
-17 9 -17 4 0 21 -12 37 -26 79 -71 213 -196 270 -250 34 -34 65 -60 67 -58 2
2 10 -7 17 -21 7 -14 17 -25 22 -25 7 0 87 -73 215 -198 l44 -43 -48 -47 c-27
-26 -59 -60 -71 -76 -12 -16 -22 -26 -22 -22 0 3 -9 -3 -20 -14 -11 -11 -20
-23 -20 -27 0 -5 -17 -24 -38 -44 -45 -45 -125 -136 -189 -216 -14 -18 -30
-30 -35 -27 -5 3 -7 2 -6 -3 5 -14 -43 -84 -53 -77 -5 3 -9 -1 -9 -9 0 -8 -11
-26 -25 -41 -13 -14 -22 -26 -19 -26 6 0 -14 -25 -38 -48 -10 -9 -18 -22 -18
-29 0 -7 -4 -13 -10 -13 -5 0 -10 -7 -10 -15 0 -8 -4 -15 -8 -15 -5 0 -15 -12
-23 -27 -8 -16 -28 -47 -46 -71 -18 -23 -40 -58 -49 -77 -9 -19 -20 -35 -25
-35 -5 0 -9 -7 -9 -15 0 -8 -5 -15 -11 -15 -5 0 -7 -5 -4 -11 4 -6 0 -16 -8
-22 -8 -7 -27 -37 -43 -67 -15 -30 -34 -62 -40 -70 -7 -8 -13 -18 -14 -22 -8
-34 -14 -48 -21 -48 -5 0 -8 -3 -7 -7 1 -5 -14 -41 -35 -80 -20 -40 -34 -73
-29 -73 4 0 3 -4 -3 -8 -15 -11 -42 -47 -29 -39 6 3 -8 -31 -30 -76 -23 -45
-44 -83 -48 -85 -5 -2 -8 -10 -8 -18 0 -7 -16 -43 -35 -79 -19 -36 -35 -69
-36 -73 0 -4 -10 -27 -22 -52 -11 -25 -20 -48 -19 -52 1 -5 -6 -8 -15 -8 -14
0 -15 -2 -5 -9 11 -6 10 -12 -5 -26 -10 -10 -17 -20 -16 -22 1 -1 -4 -17 -12
-35 -7 -18 -11 -36 -9 -40 3 -5 1 -8 -5 -8 -5 0 -15 -16 -22 -35 -7 -19 -17
-35 -22 -35 -4 0 -6 -4 -3 -9 6 -10 -16 -61 -26 -61 -5 0 -8 -7 -8 -15 0 -8
-4 -23 -10 -33 -17 -31 -50 -111 -50 -121 0 -6 -3 -11 -7 -11 -5 0 -13 -11
-20 -25 -6 -14 -8 -23 -4 -21 4 3 -7 -23 -23 -58 -17 -34 -39 -82 -49 -107
-10 -24 -22 -52 -28 -61 -5 -10 -9 -25 -9 -33 0 -9 -6 -18 -14 -21 -8 -3 -12
-12 -10 -19 3 -7 0 -16 -5 -20 -6 -3 -9 -11 -6 -16 4 -5 1 -9 -4 -9 -6 0 -10
-3 -9 -7 1 -5 -6 -22 -15 -40 -9 -18 -17 -37 -17 -44 0 -6 -8 -18 -17 -26 -10
-8 -12 -11 -5 -8 10 6 11 3 3 -11 -5 -11 -16 -35 -24 -54 -8 -19 -25 -57 -37
-85 -12 -27 -23 -55 -24 -61 -1 -7 -7 -19 -14 -27 -7 -8 -12 -19 -10 -23 1 -5
-6 -23 -15 -41 -9 -18 -17 -39 -17 -47 0 -8 -4 -16 -10 -18 -8 -2 -16 -29 -19
-61 -1 -5 -6 -5 -12 -1 -7 4 -10 1 -7 -7 3 -8 -2 -27 -10 -44 -9 -16 -17 -39
-19 -49 -2 -11 -8 -25 -14 -33 -6 -7 -8 -13 -3 -13 5 0 4 -4 -3 -8 -6 -4 -13
-16 -15 -27 -1 -11 -10 -26 -18 -33 -8 -8 -10 -11 -3 -8 6 3 3 -12 -8 -33 -10
-22 -19 -45 -19 -51 0 -5 -5 -10 -11 -10 -6 0 -9 -6 -6 -14 3 -7 -2 -24 -11
-37 -9 -13 -16 -26 -16 -29 2 -9 -25 -79 -48 -123 -5 -10 -6 -22 -3 -26 3 -5
-2 -11 -10 -14 -8 -4 -12 -15 -10 -27 2 -11 0 -20 -6 -20 -5 0 -9 -6 -9 -12 0
-7 -6 -24 -13 -38 -7 -14 -19 -44 -26 -67 -8 -24 -19 -43 -24 -43 -6 0 -8 -3
-4 -6 3 -4 -1 -23 -9 -43 -9 -20 -17 -41 -18 -48 -1 -7 -5 -16 -9 -19 -4 -4
-7 -17 -7 -29 0 -13 -7 -28 -15 -35 -9 -7 -13 -15 -11 -18 3 -2 0 -14 -6 -26
-7 -11 -13 -25 -14 -31 -1 -5 -6 -21 -12 -35 -5 -14 -10 -28 -11 -32 -1 -4
-13 -32 -26 -63 -14 -30 -22 -55 -18 -55 3 0 -1 -8 -10 -17 -8 -10 -15 -20
-15 -23 1 -5 -19 -74 -29 -100 -4 -8 -7 -17 -7 -20 -1 -3 -7 -15 -14 -27 -7
-13 -9 -23 -5 -23 4 0 2 -5 -5 -12 -7 -7 -12 -20 -12 -30 0 -10 -5 -18 -11
-18 -5 0 -8 -4 -4 -9 3 -5 1 -12 -4 -16 -6 -3 -8 -12 -4 -20 3 -8 0 -15 -6
-15 -7 0 -11 -6 -10 -12 2 -7 -5 -31 -15 -53 -9 -22 -20 -52 -23 -67 -3 -16
-8 -28 -12 -28 -4 0 -7 -10 -8 -22 -1 -11 -6 -24 -11 -27 -5 -3 -8 -14 -6 -23
1 -10 -2 -18 -7 -18 -6 0 -7 -4 -4 -10 3 -5 1 -10 -6 -10 -7 0 -10 -3 -6 -6 3
-4 -1 -23 -9 -43 -9 -20 -17 -45 -20 -56 -2 -11 -8 -21 -13 -23 -6 -2 -7 -10
-4 -18 3 -8 0 -20 -6 -28 -6 -7 -8 -16 -4 -19 3 -4 0 -7 -7 -7 -7 0 -11 -3 -7
-6 3 -4 0 -19 -8 -35 -9 -16 -16 -40 -17 -54 -1 -14 -6 -25 -10 -25 -4 0 -8
-8 -8 -18 0 -10 -5 -23 -12 -30 -7 -7 -8 -12 -4 -12 5 0 3 -7 -4 -15 -7 -8
-10 -15 -6 -15 4 0 0 -13 -9 -30 -9 -16 -13 -30 -9 -30 4 0 1 -7 -6 -15 -6 -8
-9 -19 -5 -25 3 -5 2 -10 -3 -10 -5 0 -9 -6 -9 -12 -2 -20 -39 -118 -44 -114
-2 2 -5 -5 -5 -17 -2 -36 -12 -68 -30 -94 -11 -18 -12 -23 -3 -17 11 6 12 5 3
-7 -6 -8 -19 -41 -30 -74 -10 -33 -21 -62 -24 -65 -5 -5 -9 -27 -12 -57 -1 -7
-5 -13 -10 -13 -4 0 -7 -3 -7 -7 3 -18 -14 -73 -23 -73 -5 0 -7 -4 -4 -9 5 -8
-11 -64 -31 -111 -3 -8 -5 -21 -4 -27 1 -7 -3 -13 -8 -13 -5 0 -8 -9 -6 -20 2
-11 -2 -26 -9 -33 -7 -7 -12 -20 -10 -30 1 -9 -2 -19 -7 -23 -5 -3 -7 -10 -4
-15 4 -5 1 -9 -6 -9 -7 0 -10 -3 -6 -6 3 -4 0 -22 -8 -40 -8 -19 -11 -34 -8
-34 3 0 1 -6 -4 -12 -9 -12 -21 -48 -29 -87 -1 -8 -9 -18 -16 -22 -9 -6 -9 -9
-1 -9 11 0 9 -9 -23 -95 -4 -11 -8 -23 -9 -27 -2 -5 -3 -9 -4 -10 -2 -2 -5
-14 -7 -28 -3 -13 -9 -29 -14 -34 -4 -4 -6 -15 -3 -22 3 -8 1 -14 -4 -14 -5 0
-9 -8 -10 -18 -1 -9 -8 -37 -17 -61 -8 -25 -13 -48 -10 -53 3 -4 1 -8 -4 -8
-8 0 -20 -32 -27 -75 -1 -5 -7 -22 -13 -37 -6 -15 -13 -38 -14 -52 -2 -13 -9
-30 -16 -39 -7 -8 -10 -22 -6 -31 3 -9 1 -16 -5 -16 -7 0 -11 -6 -10 -12 1 -7
-1 -22 -5 -33 -17 -43 -19 -50 -22 -63 -2 -10 4 -12 19 -7 12 3 28 7 35 7 6 1
12 6 12 11 0 6 3 7 6 4 4 -3 16 -1 28 5 11 7 26 13 31 14 6 1 24 8 40 15 17 7
33 13 38 14 4 2 9 4 12 5 3 1 8 3 13 5 4 1 20 7 35 13 16 7 30 12 32 12 2 0
25 10 52 22 26 11 53 22 58 23 6 0 19 5 30 10 84 35 134 52 139 47 3 -3 6 3 7
14 0 10 3 14 5 8 6 -14 44 -6 44 9 0 6 3 8 6 5 3 -4 30 5 60 18 30 13 55 24
57 24 24 4 47 14 47 22 0 5 4 6 10 3 5 -3 22 1 38 9 16 8 32 12 36 9 3 -4 6 0
6 7 0 7 2 11 5 8 3 -3 38 7 76 23 39 16 77 29 84 29 7 0 15 3 17 8 3 7 94 43
116 44 6 1 12 5 12 10 0 5 4 7 9 3 5 -3 13 0 16 6 4 5 12 8 19 6 6 -3 20 1 30
9 11 7 23 11 27 8 5 -3 9 -1 9 3 0 5 26 17 58 28 31 11 60 23 63 28 3 5 9 8
13 8 3 -1 7 -1 9 0 1 0 13 3 27 5 13 2 27 9 31 15 3 6 8 10 10 8 6 -4 83 23
97 34 6 5 12 7 12 3 0 -4 17 2 37 13 21 10 40 19 43 19 10 1 66 22 83 32 20
12 21 10 3 -57 -8 -29 -12 -53 -9 -53 3 0 0 -6 -6 -13 -6 -8 -12 -30 -13 -50
-2 -20 -7 -37 -12 -37 -4 0 -6 -9 -3 -20 3 -11 1 -20 -4 -20 -5 0 -8 -3 -8 -8
1 -4 0 -10 -1 -14 -1 -5 -4 -17 -5 -28 -1 -11 -4 -22 -5 -25 -1 -3 -3 -8 -4
-12 -2 -5 -8 -27 -15 -51 -6 -23 -9 -47 -6 -52 3 -5 1 -11 -5 -15 -5 -3 -10
-17 -10 -31 0 -13 -5 -24 -11 -24 -6 0 -8 -8 -4 -19 3 -10 0 -23 -7 -29 -8 -6
-13 -27 -12 -46 1 -20 -1 -36 -5 -36 -4 0 -8 -11 -9 -26 -1 -14 -6 -33 -11
-42 -4 -9 -8 -29 -7 -44 1 -14 -1 -25 -5 -22 -6 3 -14 -25 -26 -91 -3 -16 -10
-36 -15 -42 -6 -7 -8 -13 -5 -13 3 0 1 -15 -4 -32 -5 -18 -12 -46 -15 -63 -6
-37 -23 -94 -35 -117 -6 -12 -5 -18 3 -18 9 0 9 -3 0 -12 -7 -7 -12 -22 -12
-34 0 -13 -4 -25 -9 -29 -6 -3 -8 -14 -6 -25 2 -11 0 -20 -4 -20 -4 0 -8 -6
-9 -12 0 -7 -4 -26 -8 -43 -3 -16 -8 -37 -9 -45 -1 -8 -5 -22 -8 -30 -4 -8 -9
-26 -11 -40 -3 -14 -9 -40 -15 -57 -5 -18 -7 -33 -4 -33 3 0 -1 -7 -8 -17 -8
-9 -13 -18 -11 -20 6 -6 -19 -113 -27 -113 -4 0 -6 -14 -5 -30 1 -17 -2 -32
-6 -35 -5 -3 -7 -14 -5 -25 2 -11 0 -20 -4 -20 -7 0 -20 -49 -26 -100 -1 -9
-7 -25 -13 -37 -6 -11 -9 -23 -6 -26 3 -3 2 -12 -2 -19 -9 -14 -12 -28 -16
-65 -1 -13 -7 -23 -12 -23 -5 0 -7 -2 -4 -6 3 -3 0 -25 -8 -50 -7 -24 -11 -44
-8 -44 3 0 0 -8 -5 -17 -9 -18 -22 -72 -24 -105 -1 -10 -4 -18 -7 -18 -3 0 -7
-8 -8 -17 -2 -21 -10 -57 -12 -60 -5 -6 -21 -83 -21 -98 0 -5 -8 -19 -17 -29
-9 -11 -11 -16 -5 -12 16 9 17 -6 1 -22 -7 -7 -9 -12 -5 -12 3 0 0 -18 -8 -40
-8 -22 -12 -40 -8 -40 3 0 -2 -12 -12 -26 -9 -15 -12 -23 -6 -20 6 4 11 3 11
-3 0 -5 -5 -13 -11 -16 -6 -4 -8 -13 -5 -20 2 -7 2 -16 -2 -19 -3 -4 -7 -13
-9 -21 -6 -28 -11 -50 -13 -50 -1 0 -3 -7 -5 -15 -2 -8 -6 -26 -9 -40 -3 -14
-7 -36 -10 -49 -3 -13 -10 -38 -16 -56 -6 -18 -9 -39 -8 -46 2 -8 -3 -13 -10
-11 -10 2 -10 -2 -3 -17 7 -12 7 -21 2 -23 -6 -2 -12 -16 -15 -33 -2 -16 -5
-31 -6 -32 -2 -2 -4 -7 -5 -13 -1 -5 -3 -11 -5 -12 -1 -2 -3 -12 -5 -23 -7
-43 -16 -81 -22 -95 -3 -8 -7 -23 -8 -32 -2 -10 -3 -19 -5 -20 -1 -2 -4 -16
-6 -33 -3 -16 -8 -32 -12 -35 -4 -3 -7 -16 -8 -30 -1 -27 -9 -54 -25 -84 -8
-14 -7 -16 2 -11 8 6 10 4 3 -6 -5 -8 -10 -25 -12 -39 -2 -13 -7 -27 -10 -30
-4 -3 -7 -17 -7 -32 1 -16 -3 -28 -7 -28 -4 0 -8 -8 -8 -19 0 -10 -7 -37 -15
-60 -10 -31 -11 -41 -2 -41 8 0 8 -3 -2 -9 -7 -5 -14 -22 -15 -38 -2 -16 -6
-35 -9 -40 -4 -6 -8 -23 -9 -37 -1 -14 -5 -26 -8 -26 -4 0 -14 -40 -24 -90
-11 -49 -21 -90 -25 -90 -3 0 -6 -10 -7 -22 -1 -28 -33 -156 -45 -180 -4 -9
-6 -26 -4 -37 2 -12 -1 -21 -7 -21 -5 0 -8 -7 -5 -15 4 -8 2 -17 -4 -20 -5 -4
-7 -11 -4 -16 4 -5 2 -9 -2 -9 -5 0 -9 -8 -10 -17 -1 -10 -4 -29 -7 -43 -3
-14 -8 -35 -11 -47 -3 -13 -8 -33 -11 -45 -3 -13 -6 -29 -6 -35 -1 -7 -4 -13
-8 -13 -4 0 -6 -13 -5 -30 1 -16 -1 -30 -5 -30 -4 0 -10 -9 -13 -20 -3 -11 -1
-18 4 -14 5 3 6 -2 3 -10 -3 -9 -10 -16 -14 -16 -5 0 -7 -8 -5 -17 1 -10 -1
-25 -6 -34 -4 -8 -9 -26 -11 -40 -2 -13 -7 -30 -11 -36 -5 -7 -6 -13 -3 -13 2
0 0 -15 -5 -32 -6 -18 -12 -41 -14 -51 -2 -10 -7 -27 -10 -37 -7 -22 -14 -54
-22 -95 -2 -16 -9 -35 -14 -41 -5 -6 -6 -14 -2 -17 3 -4 0 -13 -7 -22 -7 -8
-10 -15 -7 -15 3 0 -1 -23 -8 -52 -8 -28 -12 -55 -9 -60 3 -4 0 -8 -6 -8 -7 0
-10 -7 -7 -15 4 -8 2 -17 -4 -20 -5 -4 -7 -10 -4 -15 3 -5 1 -11 -5 -15 -6 -4
-8 -10 -5 -15 3 -5 1 -18 -5 -29 -5 -11 -12 -32 -14 -48 -2 -15 -8 -39 -14
-53 -5 -14 -8 -29 -5 -33 3 -4 -1 -14 -7 -22 -7 -8 -10 -21 -7 -29 3 -7 0 -19
-6 -25 -6 -6 -8 -11 -4 -11 4 0 0 -17 -8 -37 -9 -21 -15 -39 -15 -41 1 -1 -2
-17 -6 -35 -4 -17 -8 -41 -9 -52 0 -11 -6 -19 -12 -18 -6 1 -9 -6 -6 -17 3
-10 0 -34 -6 -52 -10 -32 -21 -79 -24 -108 -1 -8 -4 -17 -7 -20 -7 -6 -45
-158 -45 -180 -1 -8 -4 -21 -9 -28 -17 -27 18 -36 47 -12 10 8 21 15 25 16 24
3 68 18 73 26 3 5 16 10 27 11 12 1 22 4 22 8 0 4 9 9 20 12 11 3 24 6 28 7 4
1 24 11 44 21 21 11 38 16 38 13 0 -4 9 1 20 11 11 10 20 14 20 10 0 -5 5 -4
12 3 7 7 20 12 30 12 10 0 18 4 18 10 0 5 3 9 7 9 5 -1 11 0 16 1 4 1 10 3 15
4 4 1 30 12 57 25 28 12 55 24 61 25 7 1 20 8 30 16 10 8 15 10 11 4 -4 -7 17
0 46 14 114 56 127 62 127 57 0 -3 25 6 55 20 30 13 55 22 55 19 0 -3 7 2 16
10 8 9 20 14 25 11 5 -4 9 -1 9 6 0 7 3 10 6 6 3 -3 30 5 59 18 30 13 56 21
59 17 3 -3 6 0 6 6 0 7 9 12 20 12 11 0 20 4 20 10 0 5 7 7 15 4 8 -4 15 -2
15 4 0 5 20 15 45 22 25 7 48 17 51 22 3 4 10 6 15 3 5 -4 9 -1 9 6 0 7 3 9 7
6 3 -4 21 3 40 14 18 11 33 18 33 15 0 -4 14 0 30 9 17 9 30 13 30 9 0 -4 7 0
16 7 9 7 25 15 37 16 12 2 24 8 28 14 3 6 9 10 13 9 10 -3 86 26 208 79 26 12
49 21 51 21 3 0 22 8 43 17 22 9 42 18 47 19 4 1 8 2 10 4 1 1 11 3 21 5 10 2
22 9 26 15 4 7 9 11 11 9 6 -3 82 22 95 32 6 5 14 6 17 2 4 -3 7 -2 7 3 0 5
10 10 22 11 11 1 24 7 28 14 4 6 13 8 19 5 6 -4 11 -2 11 4 0 6 4 9 9 5 5 -3
15 1 23 8 7 7 20 12 28 12 8 0 17 2 20 5 4 5 95 43 110 45 3 1 22 9 44 18 21
9 41 17 43 17 3 0 19 6 36 14 33 14 55 22 72 25 6 2 17 8 25 15 8 8 23 12 33
11 9 -2 17 1 17 6 0 6 5 7 10 4 6 -3 10 -1 10 5 0 6 4 9 9 6 4 -3 17 1 27 9
10 8 29 15 42 15 12 0 22 4 22 8 0 5 6 9 13 9 19 1 111 37 118 46 3 5 8 8 10
7 4 -1 31 7 59 18 8 3 20 7 25 7 15 3 86 33 119 52 16 9 26 11 22 4 -4 -6 9
-2 30 9 20 12 43 19 51 16 8 -3 12 -2 9 3 -4 5 20 17 51 27 32 9 63 21 69 25
6 5 19 10 30 13 41 9 64 19 64 28 0 5 4 7 9 4 5 -3 21 1 37 9 15 7 31 12 36 9
4 -3 8 -1 8 5 0 5 14 13 31 16 18 4 47 14 65 21 19 8 35 13 36 12 2 -1 14 5
28 12 14 8 32 15 40 16 8 2 16 8 18 13 2 7 10 8 22 1 13 -7 19 -6 24 6 3 8 14
14 23 12 10 -2 17 2 16 8 -1 7 6 10 17 7 11 -3 20 -1 20 4 0 5 10 9 22 10 11
1 25 8 29 15 4 7 11 9 15 6 3 -4 19 -1 34 7 15 8 30 11 34 8 3 -4 6 -1 6 6 0
7 4 10 9 6 5 -3 12 -1 16 5 4 6 11 8 16 5 5 -4 9 -1 9 4 0 6 3 10 8 9 4 -1 22
3 40 9 18 7 35 12 37 12 3 1 21 7 40 15 19 8 35 12 35 8 0 -4 4 -2 8 3 7 9 59
32 92 40 8 2 16 4 18 5 1 2 5 3 10 5 17 5 48 17 65 26 10 5 22 7 27 4 6 -4 10
-1 10 4 0 6 8 11 18 11 10 0 22 3 26 7 4 5 11 8 14 9 22 2 69 18 78 26 12 9
47 19 72 20 6 1 12 5 12 9 0 7 68 24 83 21 4 -1 7 2 7 7 0 4 20 14 45 21 24 7
43 15 41 19 -2 3 12 7 32 8 19 1 38 5 41 10 3 4 11 9 16 10 6 1 62 20 125 43
63 22 122 42 131 44 8 2 32 11 52 20 20 8 37 13 37 10 0 -3 10 1 23 8 12 6 31
13 41 15 11 2 25 8 33 14 7 6 13 9 13 5 0 -3 23 3 51 15 29 11 54 17 57 14 3
-3 14 2 24 12 10 9 18 13 18 10 0 -3 19 1 43 9 23 9 49 17 57 19 8 2 17 4 20
5 3 1 8 2 13 1 4 0 7 4 7 10 0 5 5 7 10 4 6 -3 10 -1 10 5 0 6 5 8 10 5 6 -4
17 -1 25 5 8 7 15 10 15 7 0 -3 26 4 58 15 31 11 66 22 76 24 11 2 22 7 25 11
3 5 15 8 26 8 11 -1 39 7 63 17 23 9 42 15 42 12 0 -2 12 2 28 9 15 8 33 12
40 10 6 -3 12 0 12 7 0 6 5 8 10 5 6 -3 10 -1 10 5 0 6 5 8 10 5 6 -4 17 -1
25 5 8 7 15 10 15 7 0 -3 21 2 48 10 26 8 54 16 62 18 8 3 33 9 55 16 22 6 48
11 58 12 9 1 17 5 17 9 0 4 3 7 8 6 4 -1 27 4 51 11 23 7 50 10 58 7 8 -3 11
-1 8 4 -3 6 -3 10 2 11 33 3 164 44 159 50 -3 3 10 4 29 3 21 -2 35 1 35 8 0
6 3 9 6 5 3 -3 23 1 45 8 21 8 39 12 39 8 0 -3 6 0 14 6 7 6 25 12 40 13 14 1
26 7 26 12 0 5 3 7 6 4 3 -4 20 -2 37 3 18 6 43 12 56 15 13 3 32 9 43 15 10
5 18 7 18 3 0 -3 7 -1 15 6 8 7 15 10 15 7 0 -4 18 0 40 8 22 8 40 12 40 10 0
-2 16 3 35 11 19 8 37 14 40 14 3 0 6 0 8 1 19 6 38 10 65 15 17 4 32 10 32
14 0 5 8 7 18 5 9 -1 32 3 50 11 18 7 33 13 35 13 10 -2 65 16 76 25 12 9 13
8 6 -3 -6 -11 -5 -12 6 -5 8 4 20 9 28 11 8 1 17 5 20 10 3 5 13 8 21 8 8 -1
29 4 47 11 17 7 33 10 36 8 4 -4 29 21 140 139 19 20 33 37 31 37 -3 0 5 11
18 24 36 37 58 65 58 75 0 4 9 16 20 26 11 10 20 24 20 30 0 7 7 16 16 19 8 3
12 10 9 16 -3 5 -3 10 2 10 9 1 54 70 54 85 0 6 7 14 15 18 8 4 14 16 14 27 0
10 4 20 9 22 10 4 112 208 104 208 -3 0 2 9 12 20 10 11 15 20 11 20 -3 0 2
17 13 37 10 21 19 41 20 45 2 11 11 38 23 70 6 15 10 31 10 35 0 4 4 13 10 20
5 7 7 17 3 23 -3 5 -1 10 5 10 6 0 9 4 5 9 -3 5 0 13 6 16 5 4 8 13 5 21 -3 8
0 14 6 14 6 0 9 3 5 6 -3 3 1 24 9 46 7 21 13 42 12 46 -3 22 16 71 26 65 6
-4 5 0 -2 9 -8 10 -9 18 -3 22 6 4 8 13 4 21 -3 10 -1 13 8 10 8 -3 22 -25 32
-50 11 -25 23 -45 29 -45 5 0 7 -4 3 -9 -3 -5 0 -13 6 -16 5 -4 8 -13 5 -21
-3 -8 -2 -14 3 -14 8 0 42 -67 42 -85 0 -5 7 -13 14 -18 8 -4 11 -15 8 -24 -5
-12 -3 -14 7 -8 9 5 11 4 6 -4 -4 -6 0 -18 9 -27 9 -9 19 -29 22 -45 3 -16 10
-29 15 -29 6 0 8 -6 5 -14 -3 -8 -2 -16 2 -18 5 -2 28 -43 51 -93 23 -49 64
-134 90 -187 27 -54 46 -98 42 -98 -3 0 3 -7 14 -16 10 -8 12 -12 4 -8 -11 6
-10 2 3 -13 9 -11 14 -23 10 -26 -3 -4 -1 -7 6 -7 7 0 9 -5 6 -10 -3 -6 -2
-10 4 -10 5 0 12 -14 16 -30 4 -17 11 -30 17 -30 6 0 8 -3 5 -6 -7 -7 21 -64
36 -75 5 -3 8 -10 7 -15 -1 -10 41 -106 51 -114 9 -8 22 -44 20 -54 -1 -4 6
-14 16 -22 10 -7 14 -14 9 -14 -5 0 -3 -6 3 -14 9 -10 20 -12 41 -6 16 4 31 6
34 2 3 -3 6 0 6 7 0 7 6 11 14 8 7 -3 24 1 35 10 12 8 25 12 28 9 3 -3 12 -1
19 4 6 6 16 10 20 9 5 -1 16 1 24 4 17 7 87 18 113 18 9 0 17 3 17 7 0 4 15 6
32 6 18 -1 39 3 46 9 8 6 12 5 12 -4 0 -9 3 -10 8 -4 4 6 21 10 37 10 17 0 40
3 53 7 15 5 22 4 22 -5 0 -7 3 -8 8 -2 4 6 41 10 82 10 41 -1 78 4 82 10 5 6
8 6 8 0 0 -6 63 -10 168 -10 92 0 171 -2 176 -4 4 -2 46 -4 91 -5 46 0 86 -4
90 -8 4 -3 20 -2 36 2 17 5 31 5 35 -1 3 -5 15 -7 27 -5 12 2 43 0 69 -4 30
-4 52 -3 59 4 9 8 10 6 5 -8 -5 -16 -4 -17 8 -7 11 9 20 10 35 1 15 -8 21 -8
21 0 0 6 5 8 10 5 10 -6 46 -11 133 -16 20 -2 37 -7 37 -13 0 -6 4 -6 11 1 7
7 22 8 38 4 14 -5 36 -7 49 -6 12 1 22 -2 22 -7 0 -4 5 -8 11 -8 5 0 7 5 3 11
-4 8 -1 8 13 1 10 -6 31 -9 46 -8 15 2 27 0 27 -3 0 -6 40 -11 117 -14 24 -1
43 -4 43 -8 0 -3 17 -6 39 -7 21 -2 49 -5 62 -8 13 -3 42 -7 64 -10 77 -10 90
-12 90 -14 0 -2 48 -9 98 -14 21 -2 40 -6 43 -9 3 -3 12 -3 19 -1 7 3 16 1 19
-5 4 -6 13 -8 21 -5 7 3 23 0 35 -6 18 -10 21 -10 14 2 -6 10 -5 11 7 2 12 -9
25 -12 77 -16 6 -1 12 -6 12 -12 0 -6 5 -4 10 4 5 8 10 10 10 3 0 -6 11 -10
25 -8 14 1 28 -1 31 -6 2 -4 11 -6 19 -2 8 3 15 1 15 -5 0 -5 11 -8 25 -7 14
2 25 -2 25 -8 0 -7 5 -5 10 3 5 8 10 10 10 3 0 -6 13 -10 30 -9 16 1 31 -1 32
-6 2 -4 23 -9 48 -11 25 -3 44 -8 43 -13 -1 -5 19 -8 43 -7 24 0 44 -3 44 -9
0 -5 9 -6 20 -3 11 3 20 2 20 -3 0 -6 9 -8 20 -5 11 3 20 1 20 -4 0 -5 8 -9
18 -9 9 -1 35 -4 57 -8 22 -5 46 -8 53 -9 6 0 12 -3 12 -6 0 -3 10 -7 23 -7
25 -2 72 -12 102 -21 27 -9 32 -10 56 -12 11 0 18 -5 15 -9 -2 -4 8 -7 22 -6
28 1 75 -11 105 -27 11 -6 17 -6 17 2 0 8 5 8 15 -1 8 -7 15 -9 15 -5 0 4 7 2
15 -5 8 -7 15 -9 15 -5 0 4 6 3 13 -2 6 -5 24 -9 40 -8 15 0 27 -3 27 -7 0 -4
12 -8 26 -8 14 0 23 -3 21 -8 -3 -4 13 -8 35 -10 23 -1 46 -6 52 -10 6 -3 16
-7 21 -9 6 -1 20 -4 33 -7 12 -3 30 -8 40 -10 28 -6 105 -28 122 -34 8 -3 26
-7 40 -9 13 -2 27 -8 30 -11 3 -4 12 -7 20 -7 8 0 35 -7 60 -16 25 -8 54 -15
63 -13 9 1 17 -2 17 -7 0 -5 8 -9 18 -9 10 0 24 -6 31 -12 11 -11 12 -10 6 2
-7 12 -6 13 6 4 8 -6 37 -17 66 -24 29 -8 50 -17 48 -20 -3 -4 7 -5 20 -2 15
2 25 0 25 -8 0 -7 8 -9 20 -5 12 4 20 2 20 -5 0 -6 5 -8 10 -5 5 3 10 1 10 -5
0 -6 4 -9 9 -6 4 3 31 -3 60 -13 28 -11 51 -17 51 -14 0 3 7 0 15 -7 8 -7 15
-9 15 -6 0 4 10 1 23 -6 12 -7 25 -11 29 -10 4 1 22 -5 41 -13 19 -8 47 -16
62 -19 16 -3 31 -9 34 -13 7 -10 28 -15 58 -15 12 0 24 -7 27 -15 3 -8 10 -12
16 -8 5 3 22 -1 38 -9 16 -8 32 -12 36 -9 3 4 6 2 6 -4 0 -10 18 -16 75 -25
11 -2 23 -7 27 -12 3 -5 12 -11 20 -12 7 -1 32 -9 55 -17 22 -9 44 -13 47 -10
3 4 6 2 6 -4 0 -10 94 -45 114 -42 5 0 12 -3 15 -8 3 -5 44 -23 91 -38 47 -16
87 -32 90 -35 3 -3 14 -7 25 -8 11 -2 21 -8 23 -12 2 -5 10 -6 18 -3 8 3 14 1
14 -5 0 -6 8 -9 18 -8 9 2 20 -2 24 -8 4 -6 13 -11 20 -11 26 -2 68 -17 68
-26 0 -5 6 -6 14 -3 8 3 20 -1 27 -9 7 -8 21 -12 31 -9 10 2 18 0 18 -6 0 -6
9 -9 20 -7 11 2 18 0 15 -6 -4 -5 5 -9 19 -9 14 0 26 -4 26 -8 0 -5 7 -9 15
-10 8 -1 22 -3 30 -4 8 -1 15 -5 15 -9 0 -7 59 -24 73 -21 4 1 7 -3 7 -9 0 -5
5 -7 10 -4 6 3 10 2 10 -3 0 -5 7 -9 15 -10 8 -1 22 -3 30 -4 8 -1 15 -5 15
-10 0 -4 9 -8 20 -8 11 0 20 -5 20 -12 0 -6 3 -9 6 -5 4 3 22 0 41 -8 20 -8
43 -15 52 -15 9 0 22 -5 29 -12 15 -15 52 -21 52 -9 0 5 -7 17 -16 25 -8 9
-12 16 -8 16 4 0 -3 8 -14 19 -12 10 -22 22 -22 25 0 4 -6 14 -12 21 -7 8 -24
30 -38 50 -14 19 -35 48 -47 63 -13 15 -23 32 -23 38 0 7 -7 15 -16 18 -8 3
-12 10 -9 16 3 5 1 10 -5 10 -6 0 -14 8 -17 17 -8 20 -12 26 -48 67 -14 16
-25 32 -25 35 0 3 -10 18 -23 33 -12 14 -29 36 -37 48 -8 12 -21 29 -28 36 -7
8 -11 14 -8 14 3 0 -4 11 -15 24 -12 13 -20 27 -20 30 1 4 -9 17 -21 31 -34
36 -48 53 -48 60 0 3 -9 15 -20 27 -11 12 -20 28 -20 35 0 7 -4 13 -9 13 -5 0
-18 15 -30 33 -40 62 -46 71 -69 96 -12 15 -25 34 -28 44 -3 9 -10 17 -15 17
-5 0 -9 4 -9 10 0 9 -19 36 -48 66 -7 8 -10 14 -5 14 4 0 0 5 -9 11 -10 5 -18
14 -18 20 0 10 -10 24 -48 64 -12 14 -23 28 -23 32 0 5 -8 19 -17 31 -24 34
-70 95 -80 108 -5 5 -22 30 -38 54 -16 24 -39 55 -51 68 -22 24 -27 36 -24 55
1 5 -3 6 -9 2 -5 -3 -10 1 -10 10 0 9 -5 13 -10 10 -6 -3 -10 -1 -10 4 0 13
-88 135 -101 139 -5 2 -7 8 -4 12 3 5 -7 20 -22 34 -15 14 -25 26 -20 26 7 0
-13 27 -45 61 -9 9 -14 20 -10 23 3 3 0 6 -6 6 -7 0 -12 7 -12 15 0 8 -4 15
-10 15 -5 0 -10 7 -10 16 0 8 -4 13 -9 10 -5 -3 -14 8 -21 24 -7 16 -25 43
-41 60 -16 16 -27 30 -24 30 3 0 1 6 -4 13 -25 30 -59 75 -85 114 -16 24 -33
43 -38 43 -5 0 -6 5 -3 10 3 6 1 10 -4 10 -6 0 -11 5 -11 10 0 6 -22 39 -50
74 -27 35 -50 69 -50 75 0 6 -4 11 -8 11 -4 0 -15 12 -24 28 -9 15 -28 40 -42
57 -14 16 -23 31 -21 33 2 2 -5 14 -16 26 -34 36 -120 156 -113 156 4 0 -3 8
-14 19 -12 10 -22 23 -22 30 0 6 -3 11 -8 11 -4 0 -18 18 -32 40 -14 22 -28
40 -32 40 -5 0 -8 5 -8 10 0 6 -4 16 -10 23 -47 57 -60 76 -60 86 0 6 -5 11
-10 11 -6 0 -14 8 -17 17 -4 10 -12 23 -17 29 -6 6 -18 22 -26 34 -8 12 -25
34 -37 48 -13 15 -23 32 -23 38 0 7 -7 14 -15 18 -8 3 -15 12 -15 21 0 8 -5
15 -11 15 -5 0 -7 4 -4 10 3 5 -2 10 -11 10 -10 0 -15 3 -11 6 3 3 1 11 -4 18
-41 48 -49 61 -49 73 0 8 -4 11 -10 8 -5 -3 -10 1 -10 9 0 9 -4 16 -10 16 -5
0 -10 5 -10 10 0 10 -8 22 -40 59 -8 9 -21 29 -29 44 -8 15 -18 27 -23 27 -4
0 -8 4 -8 10 0 5 -9 21 -21 34 -12 13 -20 27 -19 31 1 4 -2 11 -7 14 -5 3 -24
26 -43 51 -19 25 -38 47 -42 48 -5 2 -6 7 -3 11 2 5 -7 19 -20 31 -14 13 -25
29 -25 37 0 7 -3 13 -8 13 -4 0 -18 18 -32 40 -14 22 -28 40 -32 40 -5 0 -8 5
-8 10 0 12 -15 32 -42 58 -10 9 -18 22 -18 28 0 6 -11 23 -25 38 -14 15 -25
31 -25 37 0 5 -4 9 -10 9 -5 0 -17 16 -26 35 -9 19 -20 35 -25 35 -5 0 -9 7
-9 15 0 8 -4 15 -9 15 -6 0 -20 18 -32 40 -13 22 -26 40 -31 40 -4 0 -7 3 -5
8 1 4 -8 18 -20 32 -25 26 -29 40 -11 40 6 0 9 -2 7 -5 -3 -2 21 -32 53 -66
32 -34 58 -66 58 -70 0 -5 7 -9 15 -9 8 0 15 -4 15 -10 0 -5 18 -27 40 -49 22
-22 40 -45 40 -51 0 -6 5 -8 10 -5 6 3 10 2 10 -3 0 -5 22 -32 49 -60 27 -28
46 -53 43 -56 -3 -3 2 -6 11 -6 10 0 17 -3 17 -7 1 -7 22 -32 117 -134 12 -13
28 -29 35 -35 7 -7 33 -35 58 -64 25 -28 73 -81 108 -117 34 -35 62 -68 62
-73 0 -5 9 -12 20 -15 11 -3 20 -11 20 -17 0 -5 24 -34 53 -63 28 -30 79 -84
112 -121 33 -36 90 -98 128 -137 37 -39 67 -72 67 -74 0 -2 17 -19 37 -38 20
-19 34 -35 31 -35 -3 0 34 -41 83 -91 49 -50 89 -93 89 -94 0 -2 25 -29 55
-62 31 -32 82 -86 113 -121 31 -34 92 -99 135 -144 42 -45 77 -83 77 -85 0 -2
17 -19 37 -38 20 -19 33 -35 29 -35 -5 0 4 -10 20 -22 16 -13 31 -26 32 -31 2
-4 23 -27 45 -51 23 -23 76 -80 117 -125 41 -45 99 -107 128 -137 28 -30 52
-56 52 -58 0 -3 28 -33 63 -68 34 -36 78 -83 99 -106 l36 -43 39 48 c21 26 43
53 48 59 6 6 24 28 40 49 17 20 45 54 62 74 18 20 35 44 39 54 3 9 10 15 15
12 5 -4 9 -2 9 3 0 6 15 28 33 50 67 81 92 116 90 124 -2 4 1 8 7 8 5 0 23 20
39 44 17 25 38 52 47 60 8 9 13 16 9 16 -4 0 0 7 7 15 25 27 34 40 53 72 11
18 23 33 27 33 4 0 8 7 8 15 0 8 5 15 11 15 5 0 8 4 5 9 -3 5 1 12 10 15 8 3
13 10 10 15 -3 5 1 11 9 15 8 3 15 12 15 21 0 8 5 15 10 15 6 0 10 7 10 15 0
9 7 18 15 21 8 4 15 12 15 18 0 7 8 21 18 32 10 10 18 22 18 26 -1 4 7 17 17
28 9 11 17 24 17 29 0 4 9 16 20 26 11 10 17 21 15 25 -3 4 2 13 10 20 8 7 15
19 15 26 0 8 5 14 10 14 6 0 10 7 10 15 0 8 4 15 9 15 5 0 14 14 21 30 7 17
17 30 23 30 6 0 7 3 4 7 -4 3 4 21 18 39 14 18 29 44 35 58 5 14 14 26 20 26
5 0 9 3 8 7 -3 16 25 62 35 56 6 -4 7 -1 3 6 -5 7 0 21 10 32 9 10 14 19 11
19 -4 0 0 8 8 17 8 10 14 20 13 23 -1 3 12 26 30 52 18 26 32 51 32 57 0 6 5
11 11 11 6 0 9 6 6 14 -3 8 3 22 14 32 10 9 19 23 19 30 0 7 8 20 18 30 9 10
15 19 13 21 -6 7 33 73 42 73 4 0 6 4 2 9 -3 5 2 16 11 25 8 9 13 20 9 25 -3
6 2 14 11 19 9 5 16 12 15 15 -1 12 61 137 70 143 5 3 7 10 4 15 -4 5 -2 9 4
9 5 0 12 13 16 30 4 16 10 30 15 30 8 0 25 48 22 63 -1 4 3 7 8 7 6 0 10 7 10
15 0 8 5 15 11 15 6 0 9 6 6 14 -3 8 1 20 9 26 8 7 14 21 14 31 0 9 7 24 15
33 9 8 16 19 17 23 0 4 5 19 11 33 6 14 11 27 12 30 4 16 40 86 48 91 5 3 8 9
8 13 -3 17 12 56 22 56 6 0 8 3 4 6 -3 4 7 31 23 60 16 30 23 51 17 47 -7 -3
-4 3 6 14 9 11 17 27 17 36 0 9 5 19 10 22 6 4 8 10 5 15 -3 5 -1 11 5 15 6 4
8 11 5 16 -4 5 -1 9 6 9 7 0 9 3 6 6 -4 4 3 20 15 37 12 17 17 27 10 23 -6 -4
-2 12 10 36 11 24 24 52 29 63 4 11 17 42 28 69 12 26 19 52 16 56 -3 5 0 10
5 12 6 2 12 10 13 18 2 8 6 21 10 28 5 6 6 16 2 21 -3 6 2 14 11 19 9 5 15 12
15 15 -2 20 13 67 21 67 6 0 8 7 4 15 -3 8 0 15 6 15 6 0 9 3 5 6 -3 3 3 25
13 49 10 24 16 46 13 49 -4 3 -1 6 5 6 7 0 12 10 12 23 0 13 3 27 7 31 4 3 8
13 9 21 1 8 9 28 17 45 9 17 11 27 5 24 -5 -4 -3 5 6 18 9 14 13 28 9 31 -3 4
0 7 7 7 7 0 11 3 8 6 -7 6 20 93 35 111 6 9 5 13 -4 13 -9 0 -10 3 -3 8 11 8
28 43 26 54 -1 4 5 23 14 43 8 20 12 40 9 45 -4 6 -1 10 6 10 7 0 10 3 7 6 -4
3 0 21 8 40 8 19 12 39 9 44 -4 6 -1 10 5 10 6 0 9 4 5 9 -3 5 0 13 6 16 5 4
8 13 5 20 -2 7 -2 16 2 20 4 4 8 11 8 16 1 5 2 10 4 12 2 3 11 38 14 57 1 9 5
20 8 25 5 8 20 70 23 95 0 3 3 10 6 15 7 11 18 54 25 95 3 14 8 34 11 45 4 11
8 23 9 28 1 4 2 8 4 10 3 3 10 50 11 70 0 9 4 17 8 17 5 0 7 10 7 22 -1 13 2
29 7 36 5 6 7 12 3 12 -3 0 0 16 8 35 11 26 12 35 3 35 -8 1 -7 5 3 13 8 7 15
27 15 45 -1 17 3 32 8 32 4 0 7 8 6 18 -3 31 1 53 9 49 4 -3 7 14 7 36 0 23 4
45 8 48 5 4 11 24 13 45 5 53 11 94 18 124 4 14 7 37 8 52 0 15 4 25 8 23 3
-2 7 13 7 33 1 59 2 64 14 56 8 -5 8 -1 0 14 -7 13 -7 23 -2 27 6 3 8 14 6 25
-2 11 -1 20 3 20 4 0 8 17 9 38 1 20 4 53 8 72 3 19 8 53 11 75 2 22 6 56 9
75 3 19 7 56 9 81 2 26 7 52 10 58 4 6 5 11 3 11 -3 0 -1 16 3 35 5 24 4 35
-4 35 -8 0 -8 2 1 8 6 4 10 20 9 34 -2 15 0 26 4 23 4 -2 6 25 6 60 -1 36 2
65 6 65 4 0 5 9 3 20 -2 11 0 22 5 25 5 3 5 18 0 35 -5 17 -6 30 -2 30 8 0 10
27 14 190 2 58 7 108 12 112 6 4 5 12 -3 21 -7 9 -8 18 -2 21 5 3 8 14 6 24
-1 9 2 25 7 35 6 12 5 17 -4 17 -9 0 -9 3 2 10 9 6 11 10 3 10 -7 0 -10 7 -6
15 3 9 6 66 7 128 1 62 5 117 9 124 4 6 4 14 -1 17 -10 6 -9 56 1 72 3 6 3 14
0 18 -13 12 -14 48 -1 40 7 -5 8 -3 2 7 -11 18 -12 50 -3 70 5 9 5 19 2 23
-11 11 -12 65 -2 72 5 3 6 11 2 17 -4 6 -8 41 -9 77 -1 36 -4 111 -6 167 -2
57 -5 103 -8 103 -3 0 -5 35 -6 78 -1 91 -11 237 -18 271 -3 14 0 31 7 40 9
12 9 13 0 7 -9 -5 -13 3 -14 28 -1 20 -2 52 -3 71 0 19 -3 35 -6 35 -6 0 -9
32 -9 107 -1 23 -5 44 -9 47 -5 3 -8 26 -7 51 0 25 -1 45 -4 45 -4 0 -7 12 -7
28 -3 70 -8 102 -15 102 -4 0 -5 10 -1 22 4 15 2 19 -7 13 -10 -6 -11 -3 -3
12 6 11 7 25 2 33 -5 8 -5 19 1 26 6 7 4 15 -5 23 -8 7 -12 19 -10 26 3 7 1
23 -6 34 -8 16 -8 21 2 21 8 0 9 3 3 8 -10 7 -18 44 -19 90 0 12 -4 22 -9 22
-5 0 -8 10 -7 23 1 12 1 24 0 27 -1 3 -4 14 -6 25 -1 11 -6 34 -10 50 -4 17
-7 40 -7 53 -1 12 -4 22 -7 22 -6 0 -11 32 -14 83 0 15 -5 27 -9 27 -5 0 -6 3
-4 8 3 4 0 18 -5 32 -6 14 -12 39 -13 55 -3 29 -12 70 -15 70 -1 0 -3 15 -6
34 -2 19 -8 39 -12 45 -4 6 -9 25 -11 41 -2 17 -6 31 -11 33 -4 2 -6 12 -3 22
3 11 1 20 -3 20 -5 0 -10 10 -11 23 -2 26 -10 71 -13 75 -2 1 -4 7 -5 12 -1 6
-3 11 -4 13 -2 1 -4 13 -7 27 -2 14 -7 32 -11 40 -3 8 -8 24 -10 35 -2 16 -20
76 -50 170 -1 6 -5 24 -9 40 -3 17 -9 39 -14 50 -16 40 -38 100 -39 110 -1 11
-29 100 -38 125 -4 8 -7 17 -7 20 -1 3 -5 11 -9 18 -5 6 -6 12 -2 12 3 0 -1
13 -10 30 -8 16 -14 33 -13 37 0 4 -5 22 -12 38 -7 17 -14 35 -15 40 -2 6 -4
17 -6 25 -2 8 -6 17 -9 20 -5 5 -30 67 -34 85 -1 6 -7 20 -14 31 -6 12 -8 24
-4 28 3 4 1 11 -6 15 -7 4 -14 18 -15 29 -1 12 -5 22 -10 22 -5 0 -7 7 -3 15
3 8 1 15 -5 15 -6 0 -7 5 -4 10 3 6 1 10 -4 10 -6 0 -11 6 -11 13 0 14 -44
124 -54 134 -3 3 -6 15 -6 25 0 10 -4 18 -10 18 -5 0 -7 7 -4 15 4 8 1 15 -6
15 -6 0 -9 4 -5 9 3 5 -2 16 -11 25 -8 9 -12 20 -9 26 3 5 1 10 -4 10 -6 0
-11 9 -11 19 0 11 -4 23 -10 26 -5 3 -10 15 -10 26 0 10 -4 19 -10 19 -5 0
-10 6 -10 13 0 8 -6 27 -14 43 -8 16 -22 47 -32 69 -10 22 -23 43 -28 47 -6 4
-7 8 -2 8 4 0 1 12 -9 26 -9 14 -18 35 -20 47 -3 11 -9 23 -14 26 -5 4 -13 19
-16 34 -4 15 -11 27 -17 27 -5 0 -6 5 -3 10 3 6 1 10 -6 10 -7 0 -9 3 -6 6 7
7 -22 64 -38 76 -7 5 -7 8 0 8 6 0 4 4 -3 9 -7 4 -14 15 -16 23 -1 8 -10 27
-19 41 -10 15 -14 27 -10 27 5 0 4 4 -2 8 -5 4 -23 34 -40 67 -16 33 -33 62
-37 63 -5 2 -8 12 -8 23 0 10 -4 19 -10 19 -5 0 -10 7 -10 15 0 8 -5 15 -11
15 -5 0 -8 4 -5 9 3 4 -3 19 -14 31 -11 13 -20 27 -20 32 0 6 -9 22 -20 38
-11 15 -17 30 -13 34 3 3 1 6 -5 6 -7 0 -12 7 -12 15 0 8 -5 15 -11 15 -5 0
-8 4 -4 9 3 6 -1 13 -8 18 -7 4 -21 25 -30 45 -10 20 -22 40 -27 43 -6 4 -8
11 -5 16 4 5 1 9 -4 9 -6 0 -11 6 -11 13 0 7 -8 22 -17 33 -10 10 -29 39 -43
64 -13 25 -28 50 -32 55 -18 22 -107 165 -103 165 2 0 -7 12 -20 26 -14 15
-25 33 -25 40 0 8 -4 14 -9 14 -5 0 -16 16 -25 35 -9 19 -20 35 -24 35 -6 0
-41 54 -42 65 0 3 -8 14 -17 24 -30 33 -43 50 -43 56 0 6 -13 23 -42 55 -9 10
-14 21 -11 24 4 3 1 6 -5 6 -7 0 -12 6 -12 14 0 8 -7 16 -15 20 -8 3 -15 12
-15 21 0 8 -4 15 -10 15 -5 0 -10 6 -10 14 0 8 -4 16 -9 18 -13 4 -111 136
-111 149 0 6 -4 7 -10 4 -5 -3 -10 0 -10 7 0 7 -17 32 -39 56 -21 23 -37 42
-35 42 5 0 -32 44 -63 77 -12 13 -20 23 -17 23 5 0 1 5 -45 58 -14 17 -42 49
-61 72 -19 23 -45 52 -57 65 -12 13 -19 26 -16 29 4 3 -1 6 -10 6 -10 0 -17 6
-17 13 0 7 -8 20 -17 29 -10 8 -40 41 -68 73 -66 76 -156 174 -231 252 -34 35
-60 63 -59 63 2 0 -63 67 -144 148 -80 82 -149 147 -153 145 -5 -2 -8 4 -8 13
0 10 -2 15 -5 12 -3 -3 -34 22 -69 56 -35 33 -98 93 -141 131 -42 39 -92 84
-109 100 -18 17 -52 46 -76 65 -24 19 -56 46 -71 60 -15 14 -42 37 -59 53 -17
15 -33 27 -36 27 -3 0 -17 11 -32 25 -15 14 -34 32 -42 39 -14 13 -116 94
-168 134 -12 9 -29 23 -37 30 -7 6 -19 12 -25 12 -6 0 -8 5 -5 10 3 6 -1 10
-9 10 -9 0 -16 5 -16 10 0 6 -7 10 -16 10 -8 0 -12 5 -9 10 3 6 0 10 -7 10 -8
0 -28 14 -46 30 -18 17 -37 30 -43 30 -5 0 -9 5 -9 10 0 6 -7 10 -15 10 -8 0
-15 5 -15 10 0 6 -7 10 -16 10 -8 0 -12 5 -9 10 3 6 0 10 -8 10 -7 0 -23 9
-35 20 -12 11 -26 20 -31 20 -6 0 -14 6 -18 13 -4 8 -21 22 -38 33 -16 10 -32
21 -35 24 -3 3 -34 25 -70 49 -36 25 -66 48 -68 53 -2 4 -10 8 -18 8 -8 0 -22
9 -31 20 -10 11 -23 20 -30 20 -7 0 -13 5 -13 10 0 6 -7 10 -15 10 -8 0 -15 5
-15 10 0 6 -6 10 -13 10 -7 0 -23 9 -35 20 -12 11 -24 20 -27 20 -4 0 -21 11
-39 25 -18 14 -36 25 -40 25 -4 0 -14 6 -21 13 -27 24 -40 33 -50 36 -12 5
-22 11 -156 95 -58 36 -111 66 -117 66 -7 0 -12 4 -12 8 0 5 -18 17 -40 27
-22 10 -40 23 -40 28 0 6 -3 7 -6 4 -4 -3 -18 2 -32 13 -13 11 -28 17 -33 14
-5 -3 -9 -1 -9 3 0 5 -26 22 -57 38 -32 17 -60 32 -63 35 -3 3 -27 17 -55 30
-27 14 -56 31 -63 38 -8 7 -18 10 -23 7 -5 -4 -9 -2 -9 3 0 5 -15 15 -32 22
-18 8 -41 20 -50 28 -10 8 -25 12 -35 8 -9 -4 -14 -4 -10 0 9 9 -23 33 -45 34
-9 0 -18 4 -20 8 -3 9 -98 56 -113 57 -5 0 -14 5 -20 11 -5 6 -31 20 -57 30
-27 11 -48 22 -48 27 0 4 -6 7 -13 7 -7 0 -32 9 -55 20 -22 11 -46 20 -52 20
-5 0 -10 4 -10 9 0 5 -11 12 -25 15 -14 4 -58 22 -98 40 -39 19 -86 40 -104
47 -17 7 -29 17 -26 22 3 5 -4 4 -16 -2 -17 -10 -21 -9 -21 4 0 9 -6 15 -12
13 -7 -1 -39 10 -71 25 -32 15 -64 27 -72 27 -8 0 -15 5 -15 12 0 6 -3 8 -7 5
-3 -4 -12 -2 -20 4 -7 6 -13 8 -13 4 0 -4 -6 -3 -12 2 -7 5 -40 20 -73 32 -33
13 -69 27 -80 31 -67 27 -103 38 -109 33 -3 -4 -6 -1 -6 5 0 7 -3 11 -7 10 -5
-1 -18 3 -30 10 -12 7 -26 12 -30 11 -4 -1 -25 5 -45 14 -21 10 -44 17 -52 17
-8 0 -18 5 -21 10 -4 6 -10 8 -15 5 -5 -3 -11 -1 -15 5 -3 5 -17 10 -31 10
-13 0 -24 5 -24 11 0 6 -6 9 -12 6 -7 -2 -28 2 -45 10 -18 7 -33 10 -33 6 0
-5 -4 -3 -8 4 -4 6 -20 14 -35 17 -45 8 -68 17 -62 25 2 5 -7 6 -20 3 -14 -2
-25 0 -25 5 0 5 -14 10 -31 11 -18 1 -37 6 -43 9 -11 8 -32 13 -53 15 -7 1
-13 5 -13 10 0 5 -4 6 -10 3 -5 -3 -10 -2 -10 3 0 6 -9 8 -20 5 -12 -3 -20 0
-20 6 0 7 -4 9 -10 6 -5 -3 -16 -3 -22 2 -7 4 -17 8 -23 8 -31 3 -85 18 -85
25 0 5 -8 7 -17 5 -10 -1 -22 1 -28 5 -5 4 -18 8 -27 9 -41 3 -48 5 -48 12 0
4 -8 8 -17 8 -19 0 -141 33 -158 42 -5 3 -23 6 -39 7 -17 1 -32 6 -35 10 -3 4
-21 7 -38 7 -18 -1 -33 3 -33 8 0 5 -9 7 -20 4 -11 -3 -20 -2 -20 2 0 6 -30
12 -77 15 -13 0 -23 4 -23 9 0 4 -13 7 -28 7 -16 0 -32 3 -35 7 -7 7 -50 15
-79 14 -10 0 -18 4 -18 9 0 5 -9 7 -20 5 -11 -2 -20 2 -20 8 0 7 -4 6 -10 -3
-7 -12 -10 -12 -10 -1 0 7 -6 11 -14 8 -8 -3 -17 -3 -20 1 -7 6 -14 8 -86 18
-25 3 -49 9 -55 13 -5 4 -25 6 -42 6 -18 -1 -33 2 -33 7 0 4 -21 8 -46 8 -25
0 -43 3 -41 8 3 4 -16 8 -41 9 -42 2 -87 9 -87 13 0 2 -86 11 -125 13 -19 1
-38 7 -42 12 -5 6 -12 4 -18 -5 -9 -13 -10 -13 -10 0 0 12 -12 15 -52 15 -29
0 -57 2 -63 6 -5 3 -17 6 -25 7 -8 0 -42 3 -75 7 -33 4 -84 8 -112 10 -29 1
-60 9 -70 16 -9 8 -14 9 -10 3 4 -8 -2 -11 -18 -10 -14 0 -25 3 -25 6 0 8 -44
5 -58 -4 -7 -4 -12 -3 -12 2 0 9 -14 10 -131 16 -31 2 -61 6 -67 10 -5 3 -13
0 -15 -6 -4 -10 -6 -10 -6 0 -1 7 -6 10 -11 7 -6 -4 -18 -1 -27 7 -12 9 -15
10 -9 0 6 -9 -4 -11 -44 -6 -28 3 -81 7 -118 8 -37 1 -72 5 -79 9 -6 4 -14 3
-18 -3 -4 -6 -12 -7 -18 -3 -17 11 -41 10 -49 -2 -5 -6 -8 -5 -8 3 0 6 -5 12
-11 12 -5 0 -7 -6 -3 -12 6 -10 4 -10 -7 -2 -16 12 -29 12 -48 0 -9 -6 -12 -5
-7 2 4 7 -101 11 -364 11 -237 0 -372 -3 -376 -10 -4 -7 -10 -7 -18 0 -12 10
-53 8 -64 -3 -2 -3 -13 -1 -23 5 -11 5 -19 6 -19 2z m6275 -14682 c3 -5 2 -12
-3 -15 -5 -3 -9 1 -9 9 0 17 3 19 12 6z"/>
</g>
</svg>
